<svg enable-background="new 0 0 141.7 141.7" height="141.7" viewBox="0 0 141.7 141.7" width="141.7" xmlns="http://www.w3.org/2000/svg" xmlns:xlink="http://www.w3.org/1999/xlink"><linearGradient id="a"><stop offset="0" stop-color="#fff"/><stop offset=".9973" stop-color="#fff"/><stop offset="1" stop-color="#fff"/></linearGradient><linearGradient id="b" gradientUnits="userSpaceOnUse" x1="70.5543" x2="93.6483" xlink:href="#a" y1="71.7087" y2="71.7087"/><linearGradient id="c" gradientUnits="userSpaceOnUse" x1="70.5543" x2="98.7697" xlink:href="#a" y1="71.7086" y2="71.7086"/><linearGradient id="d" gradientUnits="userSpaceOnUse" x1="70.5535" x2="91.5991" xlink:href="#a" y1="71.7092" y2="71.7092"/><path d="m98.6 48.2c-11.4 0-28-10-28-10s-16.6 10-28 10c0 0-4.2 42 28 57 32.2-14.9 28-57 28-57zm-28 54.2c-29.5-13.7-25.7-52.2-25.7-52.2 10.5 0 25.7-9.2 25.7-9.2s15.2 9.2 25.7 9.2c-.1 0 3.7 38.5-25.7 52.2zm0-58.1s-13.6 8.2-22.9 8.2c0 0-3.4 34.4 22.9 46.6 26.4-12.2 23-46.6 23-46.6-9.4 0-23-8.2-23-8.2z" fill="#fea621"/><path d="m70.9 14.8c-30.9 0-56 25.1-56 56s25.1 56 56 56 56-25.1 56-56-25.1-56-56-56zm0 105.9c-27.5 0-49.8-22.3-49.8-49.8s22.3-49.8 49.8-49.8 49.8 22.3 49.8 49.8c0 27.4-22.4 49.8-49.8 49.8z" fill="#fea621"/><path d="m70.6 99.1v-54.8s13.6 8.2 23 8.2c-.1 0 3.3 34.4-23 46.6z" fill="url(#b)" opacity=".3"/><path d="m70.6 105.2v-2.8c29.4-13.7 25.6-52.2 25.6-52.2-10.5 0-25.7-9.2-25.7-9.2v-2.8s16.6 10 28 10c.1 0 4.3 42.1-27.9 57z" fill="url(#c)" opacity=".3"/><path d="m70.6 96.7c24-11.1 20.9-42.5 20.9-42.5-8.5 0-20.9-7.5-20.9-7.5z" fill="url(#d)" opacity=".3"/></svg>