<svg enable-background="new 0 0 345.5 254.1" height="254.1" viewBox="0 0 345.5 254.1" width="345.5" xmlns="http://www.w3.org/2000/svg" xmlns:xlink="http://www.w3.org/1999/xlink"><radialGradient id="a" cx="169.3295" cy="126.2144" gradientUnits="userSpaceOnUse" r="127.6484"><stop offset=".2623" stop-color="#278ebc"/><stop offset=".3014" stop-color="#2081b4"/><stop offset=".4162" stop-color="#1a61a2"/><stop offset=".5379" stop-color="#1d4699"/><stop offset=".668" stop-color="#1a338a"/><stop offset=".8125" stop-color="#1a2a80"/><stop offset="1" stop-color="#1a277e"/></radialGradient><path d="m169.3 211.8c-37.9 0-65-2.7-65.3-2.7-25.4-1.9-29.4-17.7-31.4-25.2-.2-.7-.3-1.3-.5-1.9-2-6.8-2-51.9-2-53.8s0-47 2-53.8c.2-.6.3-1.2.5-1.9 2-7.6 6-23.4 31.4-25.2.2 0 27.3-2.7 65.2-2.7 37.8 0 65 2.7 65.3 2.7 25.5 1.8 29.5 17.6 31.5 25.2.2.7.3 1.3.5 1.9 2 6.8 2 51.9 2 53.8s0 47-2 53.8c-.2.6-.3 1.2-.5 1.9-2 7.6-6 23.4-31.4 25.2-.3 0-27.9 2.7-65.3 2.7z" fill="url(#a)"/><path d="m169.3 213.3c-38.1 0-65.1-2.7-65.4-2.7-26.4-2-30.7-18.4-32.7-26.4l-.1-.5c-.1-.5-.2-.9-.4-1.3-2-6.8-2.1-49.4-2.1-54.2s.1-47.4 2.1-54.2c.2-.5.3-1.2.5-1.8 2-7.9 6.3-24.4 32.8-26.4.2 0 27.3-2.7 65.3-2.7 37.8 0 65.2 2.7 65.4 2.7 26.4 1.9 30.6 18.4 32.7 26.4.2.7.3 1.3.5 1.8 2 6.8 2.1 49.4 2.1 54.2s-.1 47.4-2.1 54.2c-.2.5-.3 1.2-.5 1.8-2 7.9-6.3 24.4-32.8 26.4-1 .1-28.4 2.7-65.3 2.7zm0-167.2c-38 0-64.8 2.7-65.1 2.7-24.4 1.8-28.1 16.3-30.1 24.1-.2.7-.4 1.4-.5 1.9-1.5 5.2-1.9 36-1.9 53.4s.4 48.2 1.9 53.4c.1.4.3.9.4 1.4l.1.5c2 7.8 5.8 22.3 30 24.1.3 0 27.2 2.7 65.1 2.7 36.7 0 63.9-2.6 65.1-2.7 24.3-1.8 28.1-16.3 30.1-24.1.2-.7.4-1.4.5-2 1.5-5.2 1.9-36 1.9-53.4s-.4-48.2-1.9-53.4c-.2-.6-.3-1.2-.5-1.9-2-7.8-5.8-22.3-30-24.1-.2 0-27.2-2.6-65.1-2.6z" fill="#80ced4"/><g fill="#fff"><path d="m168.9 93.3c7 0 12.6 5.6 12.6 12.6s-5.6 12.6-12.6 12.6-12.6-5.6-12.6-12.6c0-6.9 5.7-12.6 12.6-12.6z"/><path d="m185.2 119c.2.2.5.3.8.3.4 0 .9-.2 1.2-.6 2.6-3.8 4-8.1 4-12.7 0-11.2-8.3-20.5-19-22.1-.5-1.4-1.8-2.3-3.3-2.3-2 0-3.5 1.6-3.5 3.5 0 2 1.6 3.5 3.5 3.5 1.3 0 2.5-.8 3.1-1.8 9.3 1.5 16.4 9.5 16.4 19.2 0 4-1.2 7.8-3.5 11.1-.5.6-.3 1.4.3 1.9z"/><path d="m172.3 128c.6.8 1.6 1.2 2.7 1.2 2 0 3.5-1.6 3.5-3.5s-1.6-3.5-3.5-3.5c-1.8 0-3.2 1.3-3.5 3-.9.1-1.7.2-2.6.2-10.7 0-19.4-8.7-19.4-19.4 0-3.9 1.2-7.7 3.3-10.9.4-.7.3-1.5-.4-2-.6-.4-1.5-.3-2 .4-2.5 3.7-3.8 8-3.8 12.5 0 12.3 10 22.3 22.3 22.3 1.1-.1 2.3-.1 3.4-.3z"/><path d="m142.1 105.9c0-4.3 1-8.5 3-12.3h.4c1.9 0 3.5-1.6 3.5-3.5 0-2-1.6-3.5-3.5-3.5s-3.5 1.6-3.5 3.5c0 .8.2 1.4.6 2-2.2 4.2-3.4 8.9-3.4 13.8 0 5.9 1.7 11.5 4.9 16.4.3.4.8.7 1.2.7.3 0 .5-.1.8-.2.7-.4.9-1.3.4-2-2.9-4.5-4.4-9.6-4.4-14.9z"/><path d="m168.9 76.2c-4.9 0-9.7 1.2-14 3.5-.7.4-1 1.3-.6 2s1.2 1 2 .6c3.9-2.1 8.2-3.1 12.6-3.1 14.8 0 26.8 12 26.8 26.8s-12 26.8-26.8 26.8c-3.2 0-6.3-.5-9.2-1.6-.8-.3-1.6.1-1.8.9-.3.8.1 1.6.9 1.8 3.3 1.2 6.7 1.8 10.2 1.8 16.4 0 29.7-13.3 29.7-29.7-.1-16.5-13.4-29.8-29.8-29.8z"/><path d="m127.7 146.9c-.2-.6-.5-1.1-1-1.4-.4-.4-1-.7-1.6-.9s-1.4-.3-2.4-.3h-3.1c-.7 0-1.3.2-1.6.6s-.5.9-.5 1.5v12.4h3v-5.4h2.2c1.8 0 3.2-.4 4-1.3.8-.8 1.2-1.9 1.2-3.3.1-.7 0-1.3-.2-1.9zm-2.8 1.9c0 .6-.2 1.1-.5 1.4-.3.3-.9.5-1.7.5h-2.2v-3.9h2.2c.9 0 1.4.2 1.7.5.4.4.5.9.5 1.5z"/><path d="m136.1 144.9c-.6-.5-1.4-.8-2.3-.8-1 0-1.8.2-2.4.8-.6.5-1 1.2-1.2 2.1l-2.4 11.8h3l.8-3.9h4.2l.8 3.9h3l-2.4-11.8c-.2-.9-.5-1.6-1.1-2.1zm-2.8 2c.1-.1.2-.2.4-.2s.3.1.4.2c.1.2.2.4.3.7l1 4.8h-3.3l1-4.8c0-.3.1-.5.2-.7z"/><path d="m149.4 153.9-3.8-8.3c-.2-.5-.5-.9-.9-1.1-.4-.3-.9-.4-1.6-.4s-1.3.2-1.7.6-.7.9-.7 1.6v12.5h3v-9.8l3.8 8.3c.2.5.5.9.9 1.2s.9.4 1.6.4 1.3-.2 1.7-.6.6-.9.6-1.6v-12.5h-3z"/><path d="m160.1 144.1c-2.1 0-3.6.7-4.6 1.9s-1.4 3-1.4 5.4.5 4.2 1.5 5.5 2.5 2 4.5 2c2.1 0 3.6-.6 4.6-2 1-1.3 1.4-3.1 1.4-5.5s-.5-4.2-1.4-5.4c-1-1.2-2.5-1.9-4.6-1.9zm-2.3 3.7c.4-.8 1.2-1.1 2.3-1.1s1.8.4 2.3 1.1c.5.8.7 2 .7 3.6s-.2 2.8-.7 3.7c-.4.8-1.2 1.2-2.3 1.2s-1.8-.4-2.3-1.2c-.5-.9-.7-2.1-.7-3.7s.3-2.8.7-3.6z"/><path d="m178 150.9c.2-.3.3-.7.3-1 .1-.4.1-.8.1-1.1 0-.7-.1-1.3-.3-1.8-.2-.6-.5-1.1-1-1.4-.4-.4-1-.7-1.6-.9s-1.4-.3-2.3-.3h-3.1c-.7 0-1.3.2-1.6.6s-.5.9-.5 1.5v12.4h3v-5.4h2.1c.8 0 1.3.2 1.7.7.4.4.6 1.1.6 2v2.8h3v-2.9c0-.8-.2-1.6-.5-2.3-.3-.6-.7-1-1.2-1.4.2-.1.4-.2.5-.4.4-.5.6-.7.8-1.1zm-2.6-2.1c0 .6-.2 1.1-.5 1.4-.3.3-.9.5-1.7.5h-2.2v-3.9h2.2c.9 0 1.4.2 1.7.5.3.4.5.9.5 1.5z"/><path d="m187.9 144.9c-.6-.5-1.4-.8-2.3-.8-1 0-1.8.2-2.4.8-.6.5-1 1.2-1.2 2.1l-2.4 11.8h3l.8-3.9h4.2l.8 3.9h3l-2.4-11.8c-.1-.9-.5-1.6-1.1-2.1zm-.7 7.5h-3.3l1-4.8c.1-.3.2-.5.3-.7.1-.1.2-.2.4-.2s.3.1.4.2c.1.2.2.4.3.7z"/><path d="m204.8 144.1c-.7 0-1.2.2-1.6.5s-.7.7-.9 1.3l-2.5 7.4-2.5-7.4c-.2-.5-.5-1-.9-1.3s-.9-.5-1.6-.5-1.3.2-1.6.6c-.4.4-.6.9-.6 1.6v12.5h3v-8.7l1.6 4.7c.2.5.5 1 .9 1.3s.9.5 1.6.5 1.3-.2 1.7-.5.7-.8.9-1.3l1.6-4.6v8.7h3v-12.5c0-.7-.2-1.2-.6-1.6-.2-.5-.8-.7-1.5-.7z"/><path d="m218 147c-.2-.9-.6-1.6-1.2-2.1s-1.4-.8-2.3-.8c-1 0-1.8.2-2.4.8-.6.5-1 1.2-1.2 2.1l-2.4 11.8h3l.8-3.9h4.2l.8 3.9h3zm-3.9-.1c.1-.1.2-.2.4-.2s.3.1.4.2c.1.2.2.4.3.7l1 4.8h-3.3l1-4.8c0-.3 0-.5.2-.7z"/><path d="m163.2 171.5h-5.5v4.6h-.9v-10.6h.9v5.2h5.5v-5.2h.9v10.6h-.9z"/><path d="m173 176.1h-5.4c-.3 0-.6-.1-.8-.3s-.2-.5-.2-.8v-9.5h.9v9.6c0 .2.1.3.3.3h5.2z"/><path d="m175.6 175.4h5.3v.8h-5.6c-.2 0-.4-.1-.6-.2-.2-.2-.2-.4-.2-.6 0-.8.1-1.5.4-2.1.3-.5.6-1 1.1-1.3.4-.3.9-.6 1.4-.9.5-.2 1-.5 1.4-.7s.8-.5 1.1-.8.4-.7.4-1.2c0-.7-.2-1.2-.7-1.6-.4-.4-1.1-.5-2-.5-.5 0-.9.1-1.3.2s-.8.3-1.1.5l-.3-.8c.1-.1.3-.2.5-.3s.4-.2.7-.2c.2-.1.5-.1.8-.2.3 0 .5-.1.8-.1 1.1 0 2 .2 2.6.8.6.5.9 1.2.9 2.2 0 .6-.1 1.2-.4 1.5-.3.4-.6.7-1.1 1-.4.3-.9.5-1.4.7s-1 .5-1.4.8-.8.6-1.1 1.1c-.3.4-.4 1-.4 1.7 0 .1 0 .1.1.2 0-.1.1 0 .1 0z"/><path d="m117.8 170.7h35.6v1h-35.6z"/><path d="m185.7 170.7h35.6v1h-35.6z"/></g></svg>